<?xml version="1.0" standalone="no"?>
<!DOCTYPE svg PUBLIC "-//W3C//DTD SVG 20010904//EN"
 "http://www.w3.org/TR/2001/REC-SVG-20010904/DTD/svg10.dtd">
<svg version="1.0" xmlns="http://www.w3.org/2000/svg"
 width="512.000000pt" height="512.000000pt" viewBox="0 0 512.000000 512.000000"
 preserveAspectRatio="xMidYMid meet">
<metadata>
Created by potrace 1.15, written by Peter Selinger 2001-2017
</metadata>
<g transform="translate(0.000000,512.000000) scale(0.100000,-0.100000)"
fill="#00cc00" stroke="none">
<path d="M2304 4707 c-57 -52 -60 -157 -6 -215 58 -62 160 -61 222 3 42 43 53
119 25 171 -24 44 -86 74 -153 74 -45 0 -57 -5 -88 -33z"/>
<path d="M2708 4708 c-50 -47 -60 -109 -27 -175 32 -64 67 -87 127 -86 111 2
180 89 152 192 -16 62 -65 95 -150 99 -64 4 -68 3 -102 -30z"/>
<path d="M1738 4356 c-32 -13 -80 -38 -107 -55 -70 -46 -173 -158 -207 -227
l-29 -59 0 -1135 0 -1135 32 -65 c61 -124 189 -244 298 -280 36 -12 65 -26 65
-30 0 -5 -134 -213 -298 -462 -164 -249 -301 -459 -306 -466 -6 -10 29 -12
176 -10 l183 3 221 320 221 320 624 0 624 0 223 -322 223 -323 181 0 c142 0
179 3 175 13 -2 7 -138 214 -301 461 -163 247 -298 453 -299 459 -1 5 36 30
83 54 196 103 259 175 300 345 19 80 20 121 20 1128 0 1154 2 1110 -63 1218
-47 79 -171 193 -253 233 l-69 34 -830 2 -830 3 -57 -24z m1200 -106 c20 -19
22 -30 22 -145 0 -177 25 -165 -346 -165 l-292 0 -31 26 -31 26 0 116 c0 105
2 118 22 139 l21 23 307 0 c294 0 307 -1 328 -20z m483 -455 c23 -16 56 -47
73 -68 l31 -39 0 -303 0 -303 -31 -39 c-17 -21 -55 -53 -85 -71 l-54 -32 -750
2 -750 3 -41 22 c-48 25 -101 83 -120 129 -21 50 -20 520 1 571 23 55 80 118
127 142 43 21 45 21 800 19 l756 -3 43 -30z m-1383 -1687 c79 -38 130 -136
119 -230 -23 -189 -240 -282 -383 -165 -102 85 -112 255 -20 355 64 71 185 88
284 40z m1382 -6 c26 -16 57 -48 75 -76 26 -43 30 -59 30 -120 -1 -100 -46
-179 -130 -224 -46 -25 -159 -22 -210 5 -102 54 -151 163 -124 275 16 68 85
140 155 162 68 22 147 13 204 -22z"/>
</g>
</svg>
